<!DOCTYPE svg PUBLIC "-//W3C//DTD SVG 1.1//EN" "http://www.w3.org/Graphics/SVG/1.1/DTD/svg11.dtd">

<!-- Uploaded to: SVG Repo, www.svgrepo.com, Transformed by: SVG Repo Mixer Tools -->
<svg  width="34px" height="34px" viewBox="-2.4 -2.4 28.80 28.80" id="d" xmlns="http://www.w3.org/2000/svg" class="icon multi-color">

<g id="SVGRepo_bgCarrier" stroke-width="0"/>

<g id="SVGRepo_tracerCarrier" stroke-linecap="round" stroke-linejoin="round"/>

<g id="SVGRepo_iconCarrier">

<path id="secondary-fill" d="M6,7h4a0,0,0,0,1,0,0V20.42a.58.58,0,0,1-.58.58H6.58A.58.58,0,0,1,6,20.42V7A0,0,0,0,1,6,7Z" style="fill: #2ca9bc; stroke-width:1.464;"/>

<path id="primary-stroke" d="M4,7H20M16,7V4a1,1,0,0,0-1-1H9A1,1,0,0,0,8,4V7M18,20V7H6V20a1,1,0,0,0,1,1H17A1,1,0,0,0,18,20Zm-8-9v6m4-6v6" style="fill: none; stroke: #000000; stroke-linecap: round; stroke-linejoin: round; stroke-width:1.464;"/>

</g>

</svg>